<svg width="308" height="175" viewBox="0 0 308 175" fill="none" xmlns="http://www.w3.org/2000/svg">
<g filter="url(#filter0_d_9_469)">
<rect x="4" y="1" width="300" height="167" rx="10" fill="url(#paint0_radial_9_469)"/>
</g>
<path fill-rule="evenodd" clip-rule="evenodd" d="M32.3242 31.393C30.3834 33.0333 27.8657 34.0235 25.1147 34.0235C18.9762 34.0235 14 29.0934 14 23.0118C14 16.9301 18.9762 12 25.1147 12C27.8657 12 30.3834 12.9902 32.3242 14.6306C34.2651 12.9902 36.7827 12 39.5337 12C45.6722 12 50.6484 16.9301 50.6484 23.0118C50.6484 29.0934 45.6722 34.0235 39.5337 34.0235C36.7827 34.0235 34.2651 33.0333 32.3242 31.393Z" fill="#ED0006"/>
<path d="M32.3242 31.393L32.647 31.0111L32.3242 30.7383L32.0015 31.0111L32.3242 31.393ZM32.3242 14.6306L32.0015 15.0125L32.3242 15.2852L32.647 15.0125L32.3242 14.6306ZM32.0015 31.0111C30.1478 32.5777 27.7437 33.5235 25.1147 33.5235V34.5235C27.9878 34.5235 30.6189 33.4889 32.647 31.7748L32.0015 31.0111ZM25.1147 33.5235C19.248 33.5235 14.5 28.8129 14.5 23.0118H13.5C13.5 29.3739 18.7045 34.5235 25.1147 34.5235V33.5235ZM14.5 23.0118C14.5 17.2107 19.248 12.5 25.1147 12.5V11.5C18.7045 11.5 13.5 16.6496 13.5 23.0118H14.5ZM25.1147 12.5C27.7437 12.5 30.1478 13.4458 32.0015 15.0125L32.647 14.2487C30.6189 12.5346 27.9878 11.5 25.1147 11.5V12.5ZM32.647 15.0125C34.5006 13.4458 36.9047 12.5 39.5337 12.5V11.5C36.6606 11.5 34.0295 12.5346 32.0015 14.2487L32.647 15.0125ZM39.5337 12.5C45.4005 12.5 50.1484 17.2107 50.1484 23.0118H51.1484C51.1484 16.6496 45.9439 11.5 39.5337 11.5V12.5ZM50.1484 23.0118C50.1484 28.8129 45.4005 33.5235 39.5337 33.5235V34.5235C45.9439 34.5235 51.1484 29.3739 51.1484 23.0118H50.1484ZM39.5337 33.5235C36.9047 33.5235 34.5006 32.5777 32.647 31.0111L32.0015 31.7748C34.0295 33.4889 36.6606 34.5235 39.5337 34.5235V33.5235Z" fill="#E0E0E0"/>
<path fill-rule="evenodd" clip-rule="evenodd" d="M32.3242 31.393C34.714 29.3732 36.2294 26.3678 36.2294 23.0118C36.2294 19.6557 34.714 16.6503 32.3242 14.6305C34.2651 12.9902 36.7827 12 39.5337 12C45.6722 12 50.6484 16.9301 50.6484 23.0118C50.6484 29.0934 45.6722 34.0235 39.5337 34.0235C36.7827 34.0235 34.2651 33.0333 32.3242 31.393Z" fill="#F9A000"/>
<path d="M32.3242 31.393L32.0015 31.0111L31.5496 31.393L32.0015 31.7749L32.3242 31.393ZM32.3242 14.6305L32.0015 14.2486L31.5496 14.6305L32.0015 15.0124L32.3242 14.6305ZM35.7294 23.0118C35.7294 26.2136 34.2844 29.0817 32.0015 31.0111L32.647 31.7749C35.1437 29.6648 36.7294 26.5221 36.7294 23.0118H35.7294ZM32.0015 15.0124C34.2844 16.9418 35.7294 19.81 35.7294 23.0118H36.7294C36.7294 19.5014 35.1437 16.3587 32.647 14.2486L32.0015 15.0124ZM32.647 15.0124C34.5006 13.4458 36.9047 12.5 39.5337 12.5V11.5C36.6606 11.5 34.0296 12.5346 32.0015 14.2486L32.647 15.0124ZM39.5337 12.5C45.4004 12.5 50.1484 17.2107 50.1484 23.0118H51.1484C51.1484 16.6496 45.9439 11.5 39.5337 11.5V12.5ZM50.1484 23.0118C50.1484 28.8129 45.4004 33.5235 39.5337 33.5235V34.5235C45.9439 34.5235 51.1484 29.3739 51.1484 23.0118H50.1484ZM39.5337 33.5235C36.9047 33.5235 34.5006 32.5777 32.647 31.0111L32.0015 31.7749C34.0296 33.4889 36.6606 34.5235 39.5337 34.5235V33.5235Z" fill="#E0E0E0"/>
<path fill-rule="evenodd" clip-rule="evenodd" d="M32.3242 31.3929C34.714 29.3732 36.2293 26.3678 36.2293 23.0118C36.2293 19.6557 34.714 16.6504 32.3242 14.6306C29.9344 16.6504 28.4191 19.6557 28.4191 23.0118C28.4191 26.3678 29.9344 29.3732 32.3242 31.3929Z" fill="#FF5E00"/>
<defs>
<filter id="filter0_d_9_469" x="0" y="0" width="308" height="175" filterUnits="userSpaceOnUse" color-interpolation-filters="sRGB">
<feFlood flood-opacity="0" result="BackgroundImageFix"/>
<feColorMatrix in="SourceAlpha" type="matrix" values="0 0 0 0 0 0 0 0 0 0 0 0 0 0 0 0 0 0 127 0" result="hardAlpha"/>
<feOffset dy="3"/>
<feGaussianBlur stdDeviation="2"/>
<feComposite in2="hardAlpha" operator="out"/>
<feColorMatrix type="matrix" values="0 0 0 0 0 0 0 0 0 0 0 0 0 0 0 0 0 0 0.25 0"/>
<feBlend mode="normal" in2="BackgroundImageFix" result="effect1_dropShadow_9_469"/>
<feBlend mode="normal" in="SourceGraphic" in2="effect1_dropShadow_9_469" result="shape"/>
</filter>
<radialGradient id="paint0_radial_9_469" cx="0" cy="0" r="1" gradientUnits="userSpaceOnUse" gradientTransform="translate(287 1) rotate(91.3721) scale(167.048 166.791)">
<stop stop-color="#979797"/>
<stop offset="0.765625"/>
</radialGradient>
</defs>
</svg>
