<svg width="310" height="175" viewBox="0 0 310 175" fill="none" xmlns="http://www.w3.org/2000/svg">
<g filter="url(#filter0_d_49_324)">
<rect x="4" y="1" width="302" height="167" rx="10" fill="url(#paint0_linear_49_324)"/>
<rect x="4.35" y="1.35" width="301.3" height="166.3" rx="9.65" stroke="black" stroke-width="0.7" stroke-dasharray="1.4 1.4"/>
</g>
<path fill-rule="evenodd" clip-rule="evenodd" d="M277.392 161.414L277.924 158.746L276.738 158.725H271.079L275.012 139.038C275.024 138.978 275.064 138.923 275.122 138.883C275.18 138.844 275.254 138.822 275.332 138.822H284.874C288.043 138.822 290.229 139.343 291.371 140.37C291.906 140.852 292.247 141.355 292.412 141.91C292.584 142.491 292.587 143.186 292.419 144.033L292.406 144.095V144.638L292.942 144.877C293.392 145.066 293.75 145.282 294.025 145.529C294.483 145.941 294.779 146.465 294.904 147.086C295.033 147.724 294.991 148.484 294.779 149.344C294.535 150.334 294.14 151.195 293.607 151.9C293.117 152.55 292.492 153.089 291.75 153.507C291.042 153.904 290.201 154.205 289.249 154.398C288.328 154.587 287.277 154.683 286.124 154.683H285.381C284.85 154.683 284.334 154.833 283.93 155.104C283.523 155.38 283.255 155.758 283.173 156.171L283.116 156.411L282.176 161.113L282.134 161.286C282.122 161.34 282.103 161.368 282.075 161.386C282.049 161.403 282.013 161.414 281.977 161.414H277.392" fill="black"/>
<path fill-rule="evenodd" clip-rule="evenodd" d="M293.449 144.158C293.421 144.301 293.388 144.448 293.351 144.599C292.093 149.7 287.787 151.462 282.288 151.462H279.488C278.816 151.462 278.249 151.847 278.144 152.371L276.305 161.582C276.237 161.926 276.573 162.236 277.012 162.236H281.978C282.566 162.236 283.065 161.899 283.158 161.441L283.207 161.242L284.142 156.558L284.202 156.301C284.293 155.842 284.794 155.504 285.382 155.504H286.125C290.936 155.504 294.702 153.962 295.803 149.5C296.263 147.636 296.025 146.079 294.808 144.985C294.44 144.655 293.983 144.381 293.449 144.158" fill="#A29C8C"/>
<path d="M293.449 144.158C293.421 144.301 293.388 144.448 293.351 144.599C292.093 149.7 287.787 151.462 282.288 151.462H279.488C278.816 151.462 278.249 151.847 278.144 152.371L276.305 161.582C276.237 161.926 276.573 162.236 277.012 162.236H281.978C282.566 162.236 283.065 161.899 283.158 161.441L283.207 161.242L284.142 156.558L284.202 156.301C284.293 155.842 284.794 155.504 285.382 155.504H286.125C290.936 155.504 294.702 153.962 295.803 149.5C296.263 147.636 296.025 146.079 294.808 144.985C294.44 144.655 293.983 144.381 293.449 144.158" stroke="black"/>
<path fill-rule="evenodd" clip-rule="evenodd" d="M292.132 143.743C291.939 143.699 291.741 143.659 291.538 143.623C291.333 143.587 291.124 143.556 290.908 143.529C290.153 143.432 289.326 143.387 288.44 143.387H280.96C280.776 143.387 280.601 143.419 280.444 143.479C280.099 143.61 279.843 143.868 279.781 144.183L278.189 152.139L278.144 152.371C278.248 151.847 278.815 151.462 279.488 151.462H282.288C287.787 151.462 292.092 149.699 293.351 144.599C293.388 144.448 293.42 144.301 293.448 144.158C293.13 144.024 292.785 143.91 292.414 143.813C292.322 143.789 292.227 143.766 292.132 143.743" fill="#686154"/>
<path fill-rule="evenodd" clip-rule="evenodd" d="M279.781 144.183C279.843 143.868 280.099 143.61 280.445 143.48C280.602 143.42 280.776 143.387 280.96 143.387H288.44C289.326 143.387 290.153 143.433 290.908 143.53C291.124 143.557 291.333 143.588 291.538 143.624C291.742 143.66 291.94 143.7 292.132 143.744C292.228 143.766 292.322 143.79 292.415 143.813C292.786 143.91 293.131 144.025 293.45 144.158C293.824 142.273 293.447 140.989 292.156 139.827C290.732 138.548 288.163 138 284.876 138H275.333C274.662 138 274.089 138.385 273.985 138.91L270.01 158.799C269.932 159.193 270.316 159.548 270.819 159.548H276.711L279.781 144.183" fill="#514B3E"/>
<path d="M279.781 144.183C279.843 143.868 280.099 143.61 280.445 143.48C280.602 143.42 280.776 143.387 280.96 143.387H288.44C289.326 143.387 290.153 143.433 290.908 143.53C291.124 143.557 291.333 143.588 291.538 143.624C291.742 143.66 291.94 143.7 292.132 143.744C292.228 143.766 292.322 143.79 292.415 143.813C292.786 143.91 293.131 144.025 293.45 144.158C293.824 142.273 293.447 140.989 292.156 139.827C290.732 138.548 288.163 138 284.876 138H275.333C274.662 138 274.089 138.385 273.985 138.91L270.01 158.799C269.932 159.193 270.316 159.548 270.819 159.548H276.711L279.781 144.183" stroke="black"/>
<rect x="134.5" y="92.5" width="41" height="75" fill="#693825" stroke="black" stroke-dasharray="2 2"/>
<ellipse cx="155" cy="92" rx="21" ry="17" fill="#693825"/>
<circle cx="155" cy="95" r="13.5" fill="url(#paint1_linear_49_324)" stroke="#B8B8B8"/>
<defs>
<filter id="filter0_d_49_324" x="0" y="0" width="310" height="175" filterUnits="userSpaceOnUse" color-interpolation-filters="sRGB">
<feFlood flood-opacity="0" result="BackgroundImageFix"/>
<feColorMatrix in="SourceAlpha" type="matrix" values="0 0 0 0 0 0 0 0 0 0 0 0 0 0 0 0 0 0 127 0" result="hardAlpha"/>
<feOffset dy="3"/>
<feGaussianBlur stdDeviation="2"/>
<feComposite in2="hardAlpha" operator="out"/>
<feColorMatrix type="matrix" values="0 0 0 0 0 0 0 0 0 0 0 0 0 0 0 0 0 0 0.25 0"/>
<feBlend mode="normal" in2="BackgroundImageFix" result="effect1_dropShadow_49_324"/>
<feBlend mode="normal" in="SourceGraphic" in2="effect1_dropShadow_49_324" result="shape"/>
</filter>
<linearGradient id="paint0_linear_49_324" x1="4" y1="1" x2="306" y2="168" gradientUnits="userSpaceOnUse">
<stop stop-color="#633422"/>
<stop offset="0.703125" stop-color="#AF5D2D"/>
</linearGradient>
<linearGradient id="paint1_linear_49_324" x1="155" y1="81" x2="155" y2="109" gradientUnits="userSpaceOnUse">
<stop stop-color="#383226"/>
<stop offset="1" stop-color="#BFB8A8"/>
</linearGradient>
</defs>
</svg>
