<svg width="31" height="31" viewBox="0 0 31 31" fill="none" xmlns="http://www.w3.org/2000/svg">
<path fill-rule="evenodd" clip-rule="evenodd" d="M1.05785 11.5189C0.652414 11.6736 0.39298 12.072 0.415606 12.5054C0.438232 12.9387 0.737748 13.308 1.15708 13.4196L14.0186 16.8423L17.3701 29.7225C17.4793 30.1424 17.8469 30.444 18.2801 30.469C18.7133 30.494 19.1132 30.2367 19.2701 29.8322L29.953 2.28447C30.0958 1.9161 30.0084 1.49802 29.7297 1.21781C29.451 0.937591 29.0334 0.84782 28.6643 0.988575L1.05785 11.5189ZM14.7653 14.9714L4.66503 12.2835L27.2748 3.65918L18.5254 26.2208L15.8935 16.1059L21.7851 10.2468C22.0984 9.93529 22.0998 9.42877 21.7882 9.11547C21.4767 8.8022 20.9701 8.8008 20.6569 9.11234L14.7653 14.9714Z" fill="white"/>
</svg>
