<svg width="38" height="35" viewBox="0 0 38 35" fill="none" xmlns="http://www.w3.org/2000/svg">
<path d="M8.56934 34.332C9.01855 34.332 9.59473 34.2295 10.2979 34.0244C11.001 33.8193 11.7627 33.5361 12.583 33.1748C13.4131 32.8135 14.2383 32.4082 15.0586 31.959C15.8887 31.5098 16.6504 31.041 17.3438 30.5527C17.4902 30.4453 17.627 30.3721 17.7539 30.333C17.8809 30.2939 18.0078 30.2744 18.1348 30.2744C18.2227 30.2842 18.3057 30.2891 18.3838 30.2891C18.4717 30.2988 18.5498 30.3037 18.6182 30.3037C20.7373 30.2939 22.7295 30.0742 24.5947 29.6445C26.46 29.2148 28.1543 28.5947 29.6777 27.7842C31.2109 26.9736 32.5293 26.002 33.6328 24.8691C34.7363 23.7266 35.5811 22.4424 36.167 21.0166C36.7627 19.5908 37.0605 18.0576 37.0605 16.417C37.0605 14.4834 36.6162 12.6768 35.7275 10.9971C34.8486 9.31738 33.6182 7.84277 32.0361 6.57324C30.4639 5.30371 28.6328 4.3125 26.543 3.59961C24.4629 2.87695 22.2314 2.51562 19.8486 2.51562C17.4561 2.51562 15.2148 2.87695 13.125 3.59961C11.0449 4.3125 9.21875 5.30371 7.64648 6.57324C6.07422 7.84277 4.84375 9.31738 3.95508 10.9971C3.06641 12.6768 2.62207 14.4834 2.62207 16.417C2.62207 17.9893 2.91992 19.498 3.51562 20.9434C4.12109 22.3789 4.99512 23.707 6.1377 24.9277C7.29004 26.1387 8.67676 27.1836 10.2979 28.0625C10.4443 28.1406 10.5371 28.2383 10.5762 28.3555C10.6152 28.4629 10.6006 28.5898 10.5322 28.7363C10.2393 29.2246 9.90723 29.7129 9.53613 30.2012C9.16504 30.6895 8.80859 31.1387 8.4668 31.5488C8.125 31.959 7.85156 32.291 7.64648 32.5449C7.30469 32.9844 7.22168 33.3896 7.39746 33.7607C7.57324 34.1416 7.96387 34.332 8.56934 34.332Z" fill="#77C9F9"/>
<path d="M12.583 33.1748L12.1839 32.2579L12.1799 32.2597L12.583 33.1748ZM15.0586 31.959L14.5826 31.0795L14.5783 31.0819L15.0586 31.959ZM17.3438 30.5527L17.9195 31.3703L17.9274 31.3648L17.9351 31.3591L17.3438 30.5527ZM18.1348 30.2744L18.2452 29.2805L18.1902 29.2744H18.1348V30.2744ZM18.3838 30.2891L18.4942 29.2952L18.4392 29.2891H18.3838V30.2891ZM18.6182 30.3037V31.3037L18.6228 31.3037L18.6182 30.3037ZM29.6777 27.7842L29.2104 26.9001L29.208 26.9014L29.6777 27.7842ZM33.6328 24.8691L34.3491 25.5669L34.3521 25.5638L33.6328 24.8691ZM36.167 21.0166L35.2443 20.6311L35.2421 20.6365L36.167 21.0166ZM35.7275 10.9971L34.8415 11.4607L34.8436 11.4647L35.7275 10.9971ZM32.0361 6.57324L31.4079 7.35128L31.4103 7.35317L32.0361 6.57324ZM26.543 3.59961L26.2148 4.54424L26.2201 4.54606L26.543 3.59961ZM13.125 3.59961L13.4492 4.5456L13.4518 4.5447L13.125 3.59961ZM3.51562 20.9434L2.59105 21.3244L2.59423 21.332L3.51562 20.9434ZM6.1377 24.9277L5.40759 25.6111L5.41328 25.6171L6.1377 24.9277ZM10.2979 28.0625L9.82122 28.9416L9.82726 28.9449L10.2979 28.0625ZM10.5762 28.3555L9.62749 28.6717L9.63176 28.6845L9.63638 28.6972L10.5762 28.3555ZM10.5322 28.7363L11.3897 29.2508L11.4164 29.2063L11.4384 29.1592L10.5322 28.7363ZM7.64648 32.5449L6.86854 31.9166L6.86277 31.9237L6.85713 31.931L7.64648 32.5449ZM7.39746 33.7607L8.30547 33.3417L8.3012 33.3327L7.39746 33.7607ZM8.56934 35.332C9.15388 35.332 9.8333 35.2016 10.5779 34.9844L10.0179 33.0644C9.35615 33.2574 8.88323 33.332 8.56934 33.332V35.332ZM10.5779 34.9844C11.331 34.7647 12.1343 34.4652 12.9861 34.09L12.1799 32.2597C11.3911 32.6071 10.671 32.8739 10.0179 33.0644L10.5779 34.9844ZM12.9821 34.0917C13.8408 33.7179 14.693 33.2993 15.5389 32.8361L14.5783 31.0819C13.7835 31.5171 12.9854 31.909 12.1839 32.2579L12.9821 34.0917ZM15.5345 32.8385C16.3953 32.3726 17.1908 31.8835 17.9195 31.3703L16.768 29.7351C16.11 30.1985 15.3821 30.6469 14.5826 31.0795L15.5345 32.8385ZM17.9351 31.3591C17.9767 31.3286 18.0077 31.3098 18.0284 31.2987C18.0491 31.2876 18.0554 31.2865 18.048 31.2888L17.4598 29.3772C17.1949 29.4587 16.9582 29.5954 16.7524 29.7463L17.9351 31.3591ZM18.048 31.2888C18.0841 31.2777 18.112 31.2744 18.1348 31.2744V29.2744C17.9036 29.2744 17.6776 29.3102 17.4598 29.3772L18.048 31.2888ZM18.0243 31.2683C18.1442 31.2816 18.2643 31.2891 18.3838 31.2891V29.2891C18.347 29.2891 18.3011 29.2867 18.2452 29.2805L18.0243 31.2683ZM18.2734 31.2829C18.3879 31.2957 18.504 31.3037 18.6182 31.3037V29.3037C18.5956 29.3037 18.5555 29.302 18.4942 29.2952L18.2734 31.2829ZM18.6228 31.3037C20.8081 31.2936 22.8746 31.067 24.8192 30.619L24.3702 28.6701C22.5843 29.0815 20.6665 29.2943 18.6136 29.3037L18.6228 31.3037ZM24.8192 30.619C26.7607 30.1718 28.5387 29.5229 30.1474 28.667L29.208 26.9014C27.7699 27.6665 26.1593 28.2579 24.3702 28.6701L24.8192 30.619ZM30.1451 28.6682C31.7616 27.8136 33.1662 26.7813 34.3491 25.5669L32.9165 24.1714C31.8924 25.2226 30.6602 26.1336 29.2104 26.9001L30.1451 28.6682ZM34.3521 25.5638C35.5407 24.3332 36.4565 22.943 37.0919 21.3967L35.2421 20.6365C34.7056 21.9418 33.9319 23.12 32.9135 24.1744L34.3521 25.5638ZM37.0897 21.4021C37.7395 19.8468 38.0605 18.1817 38.0605 16.417H36.0605C36.0605 17.9336 35.7859 19.3349 35.2443 20.6311L37.0897 21.4021ZM38.0605 16.417C38.0605 14.3234 37.5777 12.3558 36.6115 10.5294L34.8436 11.4647C35.6547 12.9977 36.0605 14.6434 36.0605 16.417H38.0605ZM36.6136 10.5334C35.6663 8.72311 34.344 7.14307 32.662 5.79331L31.4103 7.35317C32.8923 8.54248 34.031 9.91165 34.8415 11.4607L36.6136 10.5334ZM32.6644 5.79521C30.9929 4.44556 29.0563 3.40037 26.8658 2.65316L26.2201 4.54606C28.2094 5.22463 29.9349 6.16186 31.4079 7.35127L32.6644 5.79521ZM26.8711 2.65499C24.6772 1.89278 22.334 1.51562 19.8486 1.51562V3.51562C22.1289 3.51562 24.2486 3.86113 26.2148 4.54423L26.8711 2.65499ZM19.8486 1.51562C17.3539 1.51562 15.0014 1.89264 12.7982 2.65452L13.4518 4.5447C15.4282 3.86126 17.5582 3.51562 19.8486 3.51562V1.51562ZM12.8008 2.65362C10.6201 3.401 8.68896 4.4462 7.01826 5.79521L8.27471 7.35127C9.74854 6.16123 11.4698 5.224 13.4492 4.54559L12.8008 2.65362ZM7.01826 5.79521C5.34741 7.14434 4.02712 8.72255 3.07117 10.5294L4.83899 11.4647C5.66038 9.91222 6.80103 8.5412 8.27471 7.35127L7.01826 5.79521ZM3.07117 10.5294C2.10488 12.3558 1.62207 14.3234 1.62207 16.417H3.62207C3.62207 14.6434 4.02793 12.9977 4.83899 11.4647L3.07117 10.5294ZM1.62207 16.417C1.62207 18.1192 1.94526 19.7575 2.59108 21.3244L4.44017 20.5623C3.89458 19.2386 3.62207 17.8593 3.62207 16.417H1.62207ZM2.59423 21.332C3.24883 22.884 4.1903 24.3105 5.40761 25.6111L6.86778 24.2444C5.79994 23.1035 4.99336 21.8738 4.43702 20.5547L2.59423 21.332ZM5.41328 25.6171C6.64481 26.9113 8.11753 28.0179 9.82123 28.9416L10.7745 27.1834C9.23598 26.3493 7.93526 25.3661 6.86211 24.2384L5.41328 25.6171ZM9.82726 28.9449C9.82721 28.9448 9.694 28.8712 9.62749 28.6717L11.5249 28.0392C11.3802 27.6053 11.0615 27.3364 10.7684 27.1801L9.82726 28.9449ZM9.63638 28.6972C9.59687 28.5886 9.59273 28.489 9.60107 28.4166C9.60504 28.3823 9.6115 28.3563 9.61654 28.3396C9.62156 28.3231 9.62568 28.3142 9.62604 28.3134L11.4384 29.1592C11.572 28.873 11.6776 28.4583 11.516 28.0137L9.63638 28.6972ZM9.67473 28.2218C9.40191 28.6765 9.09066 29.1347 8.73997 29.5961L10.3323 30.8063C10.7238 30.2911 11.0766 29.7727 11.3897 29.2508L9.67473 28.2218ZM8.73997 29.5961C8.37663 30.0742 8.02952 30.5115 7.69858 30.9086L9.23502 32.189C9.58767 31.7658 9.95345 31.3047 10.3323 30.8063L8.73997 29.5961ZM7.69858 30.9086C7.35528 31.3206 7.07819 31.657 6.86854 31.9166L8.42443 33.1733C8.62493 32.925 8.89472 32.5974 9.23502 32.189L7.69858 30.9086ZM6.85713 31.931C6.37929 32.5454 6.09901 33.3555 6.49372 34.1888L8.3012 33.3327C8.30116 33.3326 8.30523 33.3418 8.30708 33.3574C8.30893 33.3728 8.30705 33.3815 8.30754 33.3791C8.30945 33.3698 8.32823 33.2972 8.43584 33.1589L6.85713 31.931ZM6.4895 34.1798C6.89833 35.0656 7.7729 35.332 8.56934 35.332V33.332C8.36234 33.332 8.27651 33.2981 8.26047 33.2903C8.25563 33.288 8.26533 33.2921 8.27972 33.3066C8.29444 33.3215 8.30265 33.3357 8.30542 33.3417L6.4895 34.1798Z" fill="white"/>
<path d="M20.2734 21.8359C21.0443 21.8359 21.7396 21.7135 22.3594 21.4688C22.9844 21.224 23.4792 20.8646 23.8438 20.3906C24.2083 19.9115 24.3906 19.3281 24.3906 18.6406V18.625C24.3906 17.7812 24.1172 17.1276 23.5703 16.6641C23.0234 16.2005 22.2292 15.849 21.1875 15.6094L20.0234 15.3438C19.3776 15.1927 18.9141 14.9974 18.6328 14.7578C18.3568 14.513 18.2188 14.2188 18.2188 13.875V13.8594C18.2188 13.6042 18.2969 13.3698 18.4531 13.1562C18.6094 12.9427 18.8411 12.7708 19.1484 12.6406C19.4557 12.5104 19.8359 12.4453 20.2891 12.4453C20.6849 12.4453 21.0365 12.5078 21.3438 12.6328C21.651 12.7578 21.901 12.9427 22.0938 13.1875C22.2865 13.4271 22.401 13.724 22.4375 14.0781L22.4453 14.0938L24.2578 14.0859V14.0781C24.237 13.4323 24.0521 12.8724 23.7031 12.3984C23.3542 11.9193 22.8854 11.5495 22.2969 11.2891C21.7083 11.0234 21.0312 10.8906 20.2656 10.8906C19.5156 10.8906 18.8438 11.0182 18.25 11.2734C17.6615 11.5234 17.1953 11.8802 16.8516 12.3438C16.513 12.8073 16.3438 13.3594 16.3438 14V14.0156C16.3438 14.8281 16.6068 15.4714 17.1328 15.9453C17.6641 16.4193 18.4323 16.7734 19.4375 17.0078L20.6016 17.2734C21.3307 17.4453 21.8307 17.6484 22.1016 17.8828C22.3776 18.1172 22.5156 18.4271 22.5156 18.8125V18.8281C22.5156 19.1146 22.4375 19.3672 22.2812 19.5859C22.125 19.8047 21.8828 19.9766 21.5547 20.1016C21.2266 20.2214 20.8073 20.2812 20.2969 20.2812C19.8021 20.2812 19.3906 20.2135 19.0625 20.0781C18.7344 19.9427 18.4792 19.7552 18.2969 19.5156C18.1146 19.2708 18 18.9896 17.9531 18.6719L17.9453 18.6562L16.1328 18.6641L16.125 18.6719C16.151 19.3438 16.349 19.9167 16.7188 20.3906C17.0885 20.8594 17.5833 21.2188 18.2031 21.4688C18.8229 21.7135 19.513 21.8359 20.2734 21.8359ZM19.8359 23.1172H20.7422V9.59375H19.8359V23.1172Z" fill="#1A2B88"/>
</svg>
