<svg width="308" height="175" viewBox="0 0 308 175" fill="none" xmlns="http://www.w3.org/2000/svg">
<g filter="url(#filter0_d_9_468)">
<rect x="4" y="1" width="300" height="167" rx="10" fill="url(#paint0_radial_9_468)"/>
<rect x="4.5" y="1.5" width="299" height="166" rx="9.5" stroke="#E0E0E0"/>
</g>
<path fill-rule="evenodd" clip-rule="evenodd" d="M21.3917 35.4142L21.9238 32.7464L20.7386 32.7246H15.079L19.0122 13.0377C19.0245 12.9781 19.0641 12.9227 19.1219 12.8834C19.1801 12.844 19.2541 12.8224 19.3317 12.8224H28.8746C32.043 12.8224 34.2293 13.3427 35.3706 14.3699C35.9058 14.8518 36.2466 15.3554 36.4116 15.9095C36.5846 16.491 36.5875 17.1857 36.4188 18.0331L36.4065 18.0948V18.6378L36.9417 18.8772C37.3922 19.0659 37.7505 19.2819 38.0252 19.5291C38.4828 19.9413 38.7789 20.465 38.904 21.0856C39.0334 21.7241 38.9907 22.484 38.7789 23.3442C38.5347 24.3336 38.14 25.1954 37.6068 25.9004C37.1167 26.5501 36.492 27.0891 35.7502 27.5067C35.042 27.9035 34.2008 28.2047 33.2496 28.3975C32.3277 28.5869 31.2767 28.6825 30.124 28.6825H29.3813C28.8504 28.6825 28.3346 28.8335 27.9296 29.1041C27.5236 29.3804 27.2551 29.7578 27.1727 30.1706L27.1166 30.4109L26.1765 35.1132L26.134 35.2858C26.1226 35.3404 26.1032 35.3677 26.0747 35.3861C26.0494 35.403 26.0129 35.4142 25.9773 35.4142H21.3917" fill="#28356A"/>
<path fill-rule="evenodd" clip-rule="evenodd" d="M37.4489 18.1575C37.4207 18.3013 37.3879 18.4482 37.3514 18.5991C36.093 23.6999 31.7873 25.462 26.2884 25.462H23.4885C22.816 25.462 22.2492 25.8473 22.1446 26.371L20.3051 35.582C20.237 35.926 20.5727 36.2358 21.0121 36.2358H25.9781C26.566 36.2358 27.0655 35.8986 27.1582 35.4408L27.2069 35.2417L28.1419 30.5578L28.202 30.3009C28.2935 29.8415 28.7942 29.5041 29.3821 29.5041H30.1247C34.936 29.5041 38.7025 27.9622 39.8034 23.4999C40.263 21.6359 40.0251 20.0794 38.8082 18.9847C38.44 18.6547 37.9832 18.3807 37.4489 18.1575" fill="#298FC2"/>
<path fill-rule="evenodd" clip-rule="evenodd" d="M36.1318 17.7432C35.9395 17.6989 35.7411 17.6589 35.5376 17.6226C35.333 17.5873 35.1236 17.5561 34.9078 17.5286C34.1529 17.4323 33.3257 17.3867 32.4397 17.3867H24.9599C24.7755 17.3867 24.6006 17.4195 24.4441 17.4789C24.099 17.6098 23.8428 17.8676 23.7807 18.1832L22.1894 26.1392L22.1438 26.3711C22.2484 25.8474 22.8152 25.462 23.4877 25.462H26.2876C31.7865 25.462 36.0922 23.699 37.3507 18.5992C37.3883 18.4482 37.4199 18.3013 37.4481 18.1576C37.1298 18.0242 36.785 17.9101 36.4137 17.813C36.3219 17.7889 36.2273 17.7657 36.1318 17.7432" fill="#22284F"/>
<path fill-rule="evenodd" clip-rule="evenodd" d="M23.7811 18.1832C23.8432 17.8676 24.0994 17.6098 24.4445 17.4798C24.6021 17.4202 24.776 17.3873 24.9603 17.3873H32.4401C33.3261 17.3873 34.1534 17.4332 34.9083 17.5295C35.124 17.5567 35.3334 17.5882 35.538 17.6235C35.7415 17.6595 35.9399 17.6998 36.1322 17.7439C36.2277 17.7664 36.3223 17.7898 36.4149 17.813C36.7862 17.9101 37.1313 18.0251 37.4497 18.1576C37.8241 16.2727 37.4465 14.9893 36.1556 13.8271C34.7321 12.5476 32.1634 12 28.8762 12H19.3329C18.6615 12 18.0887 12.3854 17.985 12.91L14.0102 32.7993C13.9318 33.1928 14.3162 33.5478 14.8189 33.5478H20.7105L23.7811 18.1832" fill="#28356A"/>
<defs>
<filter id="filter0_d_9_468" x="0" y="0" width="308" height="175" filterUnits="userSpaceOnUse" color-interpolation-filters="sRGB">
<feFlood flood-opacity="0" result="BackgroundImageFix"/>
<feColorMatrix in="SourceAlpha" type="matrix" values="0 0 0 0 0 0 0 0 0 0 0 0 0 0 0 0 0 0 127 0" result="hardAlpha"/>
<feOffset dy="3"/>
<feGaussianBlur stdDeviation="2"/>
<feComposite in2="hardAlpha" operator="out"/>
<feColorMatrix type="matrix" values="0 0 0 0 0 0 0 0 0 0 0 0 0 0 0 0 0 0 0.25 0"/>
<feBlend mode="normal" in2="BackgroundImageFix" result="effect1_dropShadow_9_468"/>
<feBlend mode="normal" in="SourceGraphic" in2="effect1_dropShadow_9_468" result="shape"/>
</filter>
<radialGradient id="paint0_radial_9_468" cx="0" cy="0" r="1" gradientUnits="userSpaceOnUse" gradientTransform="translate(11 5.49999) rotate(28.8147) scale(324.704 583.3)">
<stop offset="0.192708" stop-color="white"/>
<stop offset="0.513514" stop-color="#298FC2"/>
<stop offset="0.786559" stop-color="#3D4979"/>
</radialGradient>
</defs>
</svg>
